<svg width='24' height='24' viewBox='0 0 24 24' xmlns='http://www.w3.org/2000/svg' xmlns:xlink='http://www.w3.org/1999/xlink'><rect width='24' height='24' stroke='none' fill='#000000' opacity='0'/>


<g transform="matrix(0.84 0 0 0.84 12 12)" >
<path style="stroke: none; stroke-width: 1; stroke-dasharray: none; stroke-linecap: butt; stroke-dashoffset: 0; stroke-linejoin: miter; stroke-miterlimit: 4; fill: rgb(159, 125, 189); fill-rule: evenodd; opacity: 1;" transform=" translate(-12.05, -12.12)" d="M 17.6602 1.1435 C 17.7466 0.813583 18.0447 0.583496 18.3858 0.583496 C 18.7268 0.583496 19.0249 0.813583 19.1113 1.1435 C 19.4417 2.40494 19.8041 3.17979 20.3464 3.7537 C 20.8915 4.3305 21.6901 4.78035 23.0512 5.23715 C 23.3567 5.33969 23.5625 5.62592 23.5625 5.94817 C 23.5625 6.27043 23.3567 6.55666 23.0512 6.65919 C 21.6901 7.116 20.8915 7.56584 20.3464 8.14265 C 19.8041 8.71656 19.4417 9.4914 19.1113 10.7529 C 19.0249 11.0828 18.7268 11.3128 18.3858 11.3128 C 18.0447 11.3128 17.7466 11.0828 17.6602 10.7529 C 17.3299 9.4914 16.9674 8.71656 16.4251 8.14265 C 15.8801 7.56584 15.0814 7.116 13.7204 6.65919 C 13.4149 6.55666 13.209 6.27043 13.209 5.94817 C 13.209 5.62592 13.4149 5.33969 13.7204 5.23715 C 15.0814 4.78035 15.8801 4.3305 16.4251 3.7537 C 16.9674 3.17979 17.3299 2.40494 17.6602 1.1435 Z M 8.05152 5.32096 C 8.13767 4.9907 8.43593 4.76025 8.77724 4.76025 C 9.11855 4.76025 9.41682 4.9907 9.50296 5.32096 C 10.0984 7.60394 10.7729 9.09454 11.8328 10.2207 C 12.8953 11.3496 14.4166 12.1882 16.8645 13.0131 C 17.1696 13.1159 17.375 13.4019 17.375 13.7238 C 17.375 14.0458 17.1696 14.3318 16.8645 14.4346 C 14.4166 15.2594 12.8953 16.0981 11.8328 17.2269 C 10.7729 18.3531 10.0984 19.8438 9.50296 22.1267 C 9.41682 22.457 9.11855 22.6874 8.77724 22.6874 C 8.43593 22.6874 8.13767 22.457 8.05152 22.1267 C 7.45604 19.8438 6.78163 18.3531 5.72165 17.2269 C 4.65922 16.0981 3.13784 15.2594 0.689949 14.4346 C 0.384882 14.3318 0.179443 14.0458 0.179443 13.7238 C 0.179443 13.4019 0.384882 13.1159 0.689949 13.0131 C 3.13784 12.1882 4.65922 11.3496 5.72165 10.2207 C 6.78163 9.09454 7.45604 7.60394 8.05152 5.32096 Z M 19.9017 15.4683 C 19.5621 15.4683 19.2649 15.6964 19.1771 16.0245 C 18.9366 16.9236 18.6804 17.4451 18.3143 17.8244 C 17.9439 18.2081 17.388 18.522 16.3909 18.8497 C 16.0831 18.9508 15.8751 19.2382 15.8751 19.5622 C 15.8751 19.8862 16.0831 20.1736 16.3909 20.2747 C 17.388 20.6023 17.9439 20.9163 18.3143 21.3 C 18.6804 21.6793 18.9366 22.2007 19.1771 23.0999 C 19.2649 23.428 19.5621 23.6561 19.9017 23.6561 C 20.2412 23.6561 20.5384 23.428 20.6262 23.0999 C 20.8667 22.2007 21.1229 21.6793 21.489 21.3 C 21.8594 20.9163 22.4153 20.6023 23.4124 20.2747 C 23.7202 20.1736 23.9283 19.8862 23.9283 19.5622 C 23.9283 19.2382 23.7202 18.9508 23.4124 18.8497 C 22.4153 18.522 21.8594 18.2081 21.489 17.8244 C 21.1229 17.4451 20.8667 16.9236 20.6262 16.0245 C 20.5384 15.6964 20.2412 15.4683 19.9017 15.4683 Z" stroke-linecap="round" />
</g>
</svg>